<svg width="364" height="278" viewBox="0 0 364 278" fill="none" xmlns="http://www.w3.org/2000/svg">
<g clip-path="url(#clip0_246_157)">
<path d="M220.718 83.7729C221.17 83.7938 221.619 83.6745 222.002 83.4312C222.385 83.1879 222.684 82.8324 222.859 82.4129C223.034 81.9933 223.076 81.5299 222.98 81.0855C222.883 80.6412 222.653 80.2372 222.32 79.9285C222.264 79.7062 222.224 79.5466 222.168 79.3243C222.188 79.2759 222.208 79.2276 222.229 79.1793C224.264 74.3102 231.163 74.3438 233.181 79.2201C234.973 83.5481 237.253 87.8835 237.815 92.4596C238.062 94.4824 237.958 96.5328 237.507 98.5198C241.714 89.313 243.899 79.3063 243.913 69.1781C243.914 66.6366 243.773 64.097 243.491 61.5713C243.258 59.5007 242.935 57.4448 242.522 55.4037C240.267 44.3287 235.425 33.9484 228.394 25.1151C224.992 23.2525 222.24 20.3883 220.509 16.9085C219.883 15.6576 219.44 14.3223 219.194 12.9441C219.578 12.9946 220.642 7.12995 220.352 6.77013C220.887 5.95581 221.844 5.55102 222.429 4.7564C225.334 0.804462 229.338 1.4945 231.428 6.86487C235.892 9.12521 235.935 12.8738 233.196 16.4792C231.453 18.7729 231.214 21.8766 229.684 24.3322C229.842 24.5342 230.005 24.73 230.163 24.932C233.039 28.6417 235.545 32.6251 237.646 36.8253C237.052 32.1669 237.93 26.5548 239.426 22.9372C241.129 18.8152 244.322 15.3437 247.133 11.7804C250.51 7.50018 257.435 9.36813 258.03 14.7939C258.036 14.8465 258.041 14.899 258.047 14.9515C257.629 15.1878 257.22 15.4386 256.821 15.704C256.318 16.0408 255.929 16.5219 255.704 17.0844C255.478 17.6469 255.428 18.2645 255.559 18.8564C255.689 19.4482 255.995 19.9866 256.436 20.401C256.877 20.8155 257.433 21.0867 258.03 21.179L258.091 21.1885C257.942 22.6982 257.679 24.1945 257.304 25.6643C260.911 39.6562 253.124 44.7524 242.006 44.9813C241.761 45.1075 241.522 45.2338 241.276 45.3538C243.387 51.3554 244.711 57.6069 245.215 63.9511C245.501 67.694 245.484 71.454 245.165 75.1941L245.184 75.0616C245.99 70.9026 248.201 67.1499 251.446 64.4372C256.264 60.4665 263.072 59.0043 268.27 55.8126C270.773 54.2762 273.979 56.2616 273.542 59.1719C273.536 59.2184 273.528 59.2648 273.521 59.3113C272.746 59.6279 271.992 59.9926 271.262 60.4034C270.844 60.6397 270.436 60.8906 270.036 61.1559C269.533 61.4926 269.144 61.9738 268.919 62.5363C268.694 63.0988 268.643 63.7164 268.774 64.3082C268.904 64.9001 269.21 65.4385 269.651 65.8529C270.092 66.2674 270.648 66.5386 271.245 66.6309L271.306 66.6404C271.35 66.6467 271.388 66.653 271.432 66.6594C270.108 69.8308 268.25 72.7499 265.938 75.2889C263.683 87.5033 253.997 88.6622 243.636 85.1052H243.63C242.493 90.0607 240.846 94.8843 238.715 99.4983H221.158C221.095 99.3026 221.038 99.1006 220.981 98.9049C222.606 99.0074 224.238 98.9099 225.839 98.6145C224.537 97.0111 223.234 95.395 221.932 93.7916C221.902 93.7616 221.875 93.73 221.85 93.6968C221.189 92.8762 220.522 92.0619 219.861 91.2412L219.861 91.2402C219.826 88.7247 220.113 86.215 220.717 83.7732L220.718 83.7729Z" fill="#F2F2F2"/>
<path d="M277.089 38.6985C273.824 26.7586 300.155 16.52 307.069 26.1352C308.031 24.7682 311.584 23.9378 313.214 24.3572C314.844 24.7765 316.215 25.8249 317.553 26.8397C319.392 28.257 321.298 29.7247 322.427 31.7626C323.564 33.7922 323.74 36.5599 322.21 38.321C320.997 39.7216 317.419 40.6274 315.597 40.9964C314.326 41.2564 313.256 41.4661 312.336 41.617C311.501 40.4097 311.116 38.9459 311.249 37.4824C310.63 37.9012 310.111 38.4523 309.73 39.0961C309.348 39.7399 309.113 40.4605 309.042 41.2061C309.017 41.5164 319.317 79.5333 319.317 79.5333C318.079 80.2398 316.778 80.8267 315.429 81.2861C312.762 77.1967 310.719 72.7304 309.368 68.0351C309.058 71.1747 309.097 74.3392 309.485 77.4701C309.692 79.2258 309.988 80.9697 310.371 82.695C298.132 85.3452 279.722 84.473 271.713 73.2013C271.712 73.1547 271.71 73.108 271.709 73.0613C271.703 72.6164 271.542 72.1875 271.256 71.8481C270.969 71.5087 270.573 71.2798 270.137 71.2008C269.7 71.1217 269.25 71.1974 268.863 71.4148C268.476 71.6322 268.176 71.9778 268.015 72.3924C267.821 72.8897 267.642 73.3202 267.483 73.6626C265.15 65.2926 268.168 55.606 277.089 38.6985Z" fill="#2F2E41"/>
<path d="M256.261 238.873V239.264C256.245 239.135 256.245 239.003 256.261 238.873Z" fill="#2F2E41"/>
<path d="M268.247 171.302C268.558 171.218 268.875 171.156 269.195 171.117C268.828 171.177 268.512 171.239 268.247 171.302Z" fill="#2F2E41"/>
<path d="M267.97 171.373C268.054 171.349 268.147 171.326 268.247 171.302C268.154 171.326 268.065 171.344 267.97 171.373Z" fill="#2F2E41"/>
<path d="M356.525 277.998H311.661C311.021 277.486 310.576 276.768 310.401 275.966C310.226 275.163 310.332 274.325 310.7 273.591C311.926 270.771 309.524 268.195 309.524 268.195C308.709 267.236 308.142 266.091 307.874 264.861C307.605 263.63 307.644 262.352 307.986 261.14C309.175 256.975 304.517 245.22 304.517 245.22C304.517 245.22 302.006 260.399 298.929 277.998H256.261C255.546 276.777 255.169 275.386 255.169 273.97C255.169 272.554 255.546 271.163 256.261 269.942C258.747 265.713 256.261 264.901 256.261 264.901C256.261 264.901 253.774 260.169 256.261 256.732C258.747 253.296 256.261 239.265 256.261 239.265C256.354 239.885 257.063 238.757 258.153 236.392C259.814 232.794 262.351 226.323 264.915 218.811C266.748 213.449 268.596 207.55 270.14 201.783H270.143C270.548 200.267 270.932 198.766 271.294 197.278C272.003 194.361 272.61 191.526 273.071 188.864C274.071 183.13 274.401 178.205 273.633 175.001C272.996 172.336 271.601 170.866 269.195 171.117C270.485 170.903 272.374 170.7 274.701 170.508C275.121 170.474 275.556 170.441 276.005 170.403C293.366 169.087 330.614 168.331 330.614 168.331L342.024 188.826L356.472 214.788C356.472 214.788 356.079 249.615 356.525 277.998Z" fill="#2F2E41"/>
<path d="M308.638 79.7487L282.353 74.1555L277.134 84.6938L259.559 94.901C259.559 94.901 270.888 141.368 270.823 147.904C270.659 164.496 244.194 201.691 264.184 198.829C284.174 195.968 288.234 183.983 294.652 185.878C300.439 187.587 307.506 195.19 312.237 189.752C316.968 184.314 318.635 190.594 321.627 190.811C323.048 190.914 322.192 183.944 325.769 191.027C329.346 198.111 348.315 188.576 341.886 182.127C331.179 171.386 329.002 92.208 329.002 92.208L317.083 88.529L308.638 79.7487Z" fill="#E6E6E6"/>
<path d="M259.062 248.498C260.118 247.235 260.641 245.608 260.519 243.964C260.398 242.319 259.642 240.787 258.412 239.694C258.158 239.476 257.887 239.279 257.601 239.105L261.996 217.468L251.836 211.368L249.01 241.661C248.385 242.906 248.188 244.324 248.451 245.693C248.713 247.062 249.42 248.305 250.461 249.229C251.058 249.748 251.751 250.145 252.501 250.396C253.252 250.647 254.044 250.748 254.832 250.692C255.621 250.635 256.391 250.424 257.099 250.069C257.806 249.715 258.437 249.224 258.955 248.625C258.991 248.583 259.027 248.541 259.062 248.498Z" fill="#A0616A"/>
<path d="M290.608 134.448C290.544 133.752 289.66 133.436 288.434 133C287.203 132.62 286.033 132.064 284.959 131.35C282.246 129.383 283.314 127.327 284.791 124.484C285.079 123.931 285.379 123.356 285.66 122.758C286.496 120.987 285.166 113.682 281.699 101.041C280.63 97.1501 280.634 94.4016 279.896 92.5781C279.161 90.7546 277.688 89.856 273.674 89.668C268.822 89.4223 264.071 91.1164 260.462 94.3791C260.365 94.4655 260.264 94.5595 260.166 94.6498C259.983 94.8227 259.803 94.9994 259.626 95.1799C256.289 98.5479 254.379 103.08 254.297 107.828L254.278 108.636L253.45 147.257L251.122 181.149L247.914 227.835L250.29 227.951L259.773 228.425L260.923 228.481L263.652 216.999L266.935 203.181L268.142 198.105L271.886 182.359L273.633 175.001L274.701 170.508L275.136 168.673L277.257 159.755C277.306 159.567 282.186 140.253 287.812 137.023C289.911 135.82 290.668 135.121 290.608 134.448Z" fill="#E6E6E6"/>
<path d="M353.729 248.268C352.544 247.126 351.85 245.565 351.794 243.917C351.739 242.269 352.327 240.664 353.433 239.445C353.661 239.2 353.91 238.975 354.176 238.772L347.49 217.734L356.938 210.575L362.991 240.388C363.745 241.558 364.093 242.946 363.979 244.336C363.864 245.725 363.295 247.037 362.359 248.068C361.821 248.649 361.174 249.118 360.455 249.448C359.736 249.779 358.959 249.964 358.169 249.993C357.379 250.022 356.59 249.895 355.849 249.619C355.108 249.342 354.428 248.922 353.849 248.383C353.809 248.345 353.769 248.307 353.729 248.268Z" fill="#A0616A"/>
<path d="M358.351 202.617C358.351 202.617 350.982 176.609 353.23 173.794C355.477 170.978 348.84 170.428 351.7 165.185C354.56 159.941 350.612 159.064 350.612 159.064L348.47 147.008L344.64 117.395L344.524 116.514L343.41 107.899C343.099 105.438 342.297 103.065 341.051 100.923C339.805 98.7803 338.141 96.9119 336.158 95.4292C336.057 95.3515 335.954 95.2768 335.85 95.2021C335.379 94.8616 334.897 94.5461 334.405 94.2557C330.729 92.0801 326.412 91.2575 322.196 91.9294C314.254 93.1703 316.726 96.1416 315.437 104.102C313.344 117.044 312.801 124.449 313.822 126.122C314.165 126.685 314.527 127.224 314.871 127.742C316.645 130.412 317.927 132.339 315.438 134.591C314.446 135.414 313.343 136.091 312.161 136.602C310.991 137.17 310.144 137.578 310.156 138.277C310.169 138.953 310.996 139.564 313.21 140.533C315.893 141.711 318.775 146.164 321.135 150.713C323.008 154.38 324.678 158.148 326.138 161.999L346.425 219.235L349.734 228.569L350.876 228.388L360.249 226.897L362.6 226.524L358.351 202.617Z" fill="#E6E6E6"/>
<path d="M297.549 73.7602C309.392 73.7602 318.994 64.1288 318.994 52.2479C318.994 40.367 309.392 30.7357 297.549 30.7357C285.705 30.7357 276.104 40.367 276.104 52.2479C276.104 64.1288 285.705 73.7602 297.549 73.7602Z" fill="#A0616A"/>
<path d="M265.384 40.3758C262.12 28.436 288.45 18.1973 295.364 27.8125C296.326 26.4455 299.879 25.6152 301.509 26.0345C303.14 26.4539 304.511 27.5022 305.848 28.517C307.688 29.9344 309.594 31.402 310.723 33.44C311.86 35.4696 312.035 38.2372 310.505 39.9984C309.293 41.3989 305.715 42.3047 303.892 42.6737C302.621 42.9337 301.551 43.1434 300.632 43.2943C299.796 42.0871 299.411 40.6232 299.545 39.1597C298.926 39.5786 298.407 40.1297 298.025 40.7735C297.644 41.4173 297.409 42.1378 297.338 42.8834C297.312 43.1937 307.612 81.2106 307.612 81.2106C306.375 81.9171 305.073 82.504 303.725 82.9634C301.058 78.874 299.015 74.4077 297.664 69.7124C297.353 72.852 297.392 76.0166 297.781 79.1475C297.987 80.9031 298.283 82.647 298.667 84.3723C286.427 87.0226 268.018 86.1504 260.008 74.8787C260.007 74.832 260.006 74.7854 260.004 74.7387C259.998 74.2937 259.838 73.8648 259.551 73.5254C259.264 73.186 258.869 72.9572 258.432 72.8781C257.996 72.7991 257.545 72.8748 257.158 73.0922C256.771 73.3096 256.472 73.6552 256.311 74.0698C256.117 74.5671 255.938 74.9976 255.778 75.3399C253.446 66.97 256.464 57.2833 265.384 40.3758Z" fill="#2F2E41"/>
<path d="M159.031 114.71C158.578 114.731 158.13 114.612 157.747 114.368C157.364 114.125 157.064 113.77 156.89 113.35C156.715 112.93 156.673 112.467 156.769 112.023C156.865 111.578 157.096 111.174 157.429 110.866C157.484 110.643 157.524 110.484 157.58 110.261C157.56 110.213 157.54 110.165 157.52 110.116C155.484 105.247 148.586 105.281 146.567 110.157C144.776 114.485 142.495 118.821 141.934 123.397C141.686 125.42 141.791 127.47 142.242 129.457C138.035 120.25 135.85 110.243 135.836 100.115C135.835 97.5738 135.976 95.0342 136.257 92.5084C136.49 90.4378 136.813 88.3819 137.227 86.3408C139.482 75.2659 144.323 64.8855 151.354 56.0522C154.757 54.1897 157.509 51.3255 159.239 47.8456C159.866 46.5948 160.309 45.2594 160.554 43.8812C160.171 43.9317 159.107 38.0671 159.397 37.7073C158.862 36.893 157.904 36.4882 157.32 35.6936C154.414 31.7416 150.411 32.4317 148.321 37.802C143.856 40.0624 143.813 43.811 146.553 47.4163C148.295 49.7101 148.535 52.8138 150.064 55.2694C149.907 55.4714 149.743 55.6671 149.586 55.8691C146.71 59.5788 144.203 63.5623 142.102 67.7625C142.697 63.1041 141.819 57.492 140.323 53.8743C138.619 49.7524 135.427 46.2809 132.615 42.7175C129.238 38.4373 122.314 40.3053 121.719 45.7311C121.713 45.7836 121.707 45.8362 121.702 45.8887C122.119 46.125 122.528 46.3758 122.928 46.6412C123.431 46.9779 123.82 47.4591 124.045 48.0216C124.27 48.5841 124.321 49.2017 124.19 49.7935C124.059 50.3853 123.753 50.9237 123.313 51.3382C122.872 51.7527 122.316 52.0238 121.719 52.1162L121.658 52.1256C121.806 53.6354 122.069 55.1317 122.444 56.6014C118.838 70.5934 126.624 75.6895 137.742 75.9185C137.988 76.0447 138.227 76.171 138.473 76.2909C136.361 82.2926 135.037 88.5441 134.533 94.8883C134.248 98.6312 134.265 102.391 134.583 106.131L134.565 105.999C133.759 101.84 131.547 98.0871 128.303 95.3744C123.484 91.4036 116.677 89.9414 111.478 86.7497C108.976 85.2133 105.769 87.1988 106.206 90.1091C106.213 90.1555 106.22 90.202 106.227 90.2485C107.002 90.5651 107.757 90.9298 108.487 91.3405C108.904 91.5769 109.313 91.8277 109.713 92.093C110.215 92.4298 110.605 92.9109 110.83 93.4734C111.055 94.036 111.106 94.6536 110.975 95.2454C110.844 95.8372 110.538 96.3756 110.097 96.7901C109.656 97.2046 109.101 97.4757 108.504 97.5681L108.442 97.5775C108.398 97.5838 108.361 97.5902 108.317 97.5965C109.641 100.768 111.499 103.687 113.81 106.226C116.066 118.44 125.752 119.599 136.113 116.042H136.119C137.256 120.998 138.903 125.822 141.034 130.435H158.591C158.654 130.24 158.711 130.038 158.767 129.842C157.142 129.945 155.511 129.847 153.909 129.552C155.212 127.948 156.514 126.332 157.817 124.729C157.846 124.699 157.873 124.667 157.899 124.634C158.56 123.813 159.227 122.999 159.887 122.178L159.888 122.177C159.923 119.662 159.635 117.152 159.032 114.71L159.031 114.71Z" fill="#F2F2F2"/>
<path d="M77.1072 26.1356C76.7087 27.0671 64.4219 26.9673 63.8591 27.7968C59.5204 34.2008 75.1607 61.4484 70.822 67.8607L70.2176 68.5833C71.633 67.9289 72.9927 67.1594 74.283 66.2825C74.399 63.6578 74.5149 61.0247 74.6391 58.4C75.9387 60.0677 76.9876 61.9175 77.7524 63.8904C78.7626 63.176 79.5912 61.8518 83.921 59.2473C85.6739 57.3156 87.6947 55.647 89.9213 54.2925L77.1072 26.1356Z" fill="#2F2E41"/>
<path d="M86.0294 78.6201C84.6735 77.7341 83.1266 77.1852 81.5169 77.019C79.9072 76.8528 78.2812 77.0741 76.7738 77.6644C75.2664 78.2548 73.9211 79.1973 72.8496 80.4137C71.778 81.6301 71.011 83.0853 70.6124 84.6585L51.9407 133.462L19.8463 115.184C19.7053 113.083 18.9048 111.081 17.5594 109.465C16.2139 107.848 14.3928 106.701 12.3572 106.187C10.3216 105.673 8.17598 105.819 6.2282 106.604C4.28042 107.389 2.6305 108.773 1.51508 110.557C0.399656 112.341 -0.123963 114.433 0.0193223 116.534C0.162608 118.634 0.965438 120.636 2.31266 122.251C3.65989 123.865 5.48229 125.011 7.51851 125.522C9.55472 126.034 11.7001 125.885 13.647 125.098C20.4058 132.334 49.7077 162.003 61.8385 150.411C72.0351 140.667 86.7499 102.903 90.292 89.8626C90.8594 87.7773 90.7524 85.5652 89.9864 83.5448C89.2203 81.5244 87.8348 79.8001 86.0294 78.6201Z" fill="#FFB6B6"/>
<path d="M50.9691 152.456L56.8613 179.172L99.9471 183.081L103.907 159.819L50.9691 152.456Z" fill="#FFB6B6"/>
<path d="M116.783 220.965C116.764 221.348 116.74 221.727 116.713 222.11C116.299 227.646 115.827 234.03 115.315 241.026C114.508 252.129 113.607 264.772 112.698 277.998H22.3252L39.852 225.152C39.852 225.152 46.929 221.243 43.326 214.677C39.7231 208.111 46.8124 213.344 46.8783 203.966C46.9443 194.589 53.297 184.613 53.297 184.613L54.34 170.415L54.9343 170.427L101.965 171.212L102.823 171.228L104.267 183.417C113.038 193.886 117.512 207.309 116.783 220.965Z" fill="#2F2E41"/>
<path d="M77.8604 65.6729L99.3062 64.5646L109.267 80.3538C109.267 80.3538 128.009 83.497 126.71 105.652C125.411 127.806 103.907 147.247 103.907 147.247L104.826 144.085L103.23 148.661L103.434 151.231L105.612 153.952L105.836 156.766L103.907 161.219C104.158 161.622 104.291 162.088 104.291 162.564C104.291 163.039 104.159 163.505 103.909 163.909C103.658 164.313 103.3 164.638 102.875 164.848C102.449 165.058 101.974 165.144 101.502 165.097L70.5144 161.982C69.8089 160.035 69.2428 157.705 66.4149 161.583L63.4958 161.3L51.3612 160.12L50.6469 157.51C50.2411 156.027 50.1778 154.471 50.462 152.96C50.7461 151.448 51.3702 150.022 52.2867 148.789C51.2327 145.478 51.5087 141.885 53.0561 138.776L53.1142 138.659L54.4028 137.581C54.4028 137.581 40.3046 116.334 56.4889 100.331L62.9845 89.2541L70.2525 80.3588L77.8604 65.6729Z" fill="#264653"/>
<path d="M83.1979 56.3525C94.4295 56.3525 103.534 47.2189 103.534 35.9519C103.534 24.685 94.4295 15.5514 83.1979 15.5514C71.9663 15.5514 62.8613 24.685 62.8613 35.9519C62.8613 47.2189 71.9663 56.3525 83.1979 56.3525Z" fill="#FFB6B6"/>
<path d="M98.6437 65.3404C96.9876 63.9523 95.8349 62.0543 95.3647 59.9415C94.9886 62.5069 95.0869 65.1198 95.6546 67.6495C94.5533 68.4801 93.4852 69.2692 92.475 69.9835C91.7102 68.0107 90.6613 66.1609 89.3617 64.4932C89.2375 67.1179 89.1216 69.751 89.0057 72.3757C87.7153 73.2526 86.3556 74.0221 84.9402 74.6765L85.5446 73.9539C89.8833 67.5415 78.6556 55.7386 82.9943 49.3345C84.2115 47.5404 78.7136 33.3619 74.5238 32.7223C70.7978 32.1575 70.9551 33.2373 67.345 34.0264C66.9701 32.4579 66.3881 30.9467 65.6145 29.5328C65.8204 31.1083 65.7729 32.7068 65.4738 34.2672C64.1904 34.3171 63.1806 33.4967 61.814 33.2871C53.0951 31.9499 53.981 22.4892 56.4071 19.4907C58.8414 16.5005 66.9228 15.6034 70.6488 14.6316C70.9883 14.2994 71.7583 14.507 72.0978 14.1914C79.2385 7.63578 88.7888 6.55012 97.3831 9.45571C106.548 12.5543 112.263 18.5515 115.195 27.7968L116.037 35.1954C116.791 37.5744 115.842 48.6432 115.195 51.0539C112.682 60.4249 107.33 55.7469 98.6437 65.3404Z" fill="#2F2E41"/>
<path d="M128.296 161.993L127.496 99.4422C127.454 96.7922 126.375 94.2649 124.492 92.4058C122.609 90.5466 120.073 89.5046 117.431 89.5046H117.431C116.065 89.5046 114.712 89.7838 113.456 90.3252C112.201 90.8667 111.068 91.659 110.128 92.6538C109.187 93.6487 108.459 94.8253 107.986 96.1119C107.514 97.3984 107.308 98.768 107.38 100.137L110.197 165.087L110.251 204.625C108.59 205.331 107.187 206.533 106.231 208.068C105.275 209.602 104.814 211.394 104.909 213.201C105.004 215.008 105.651 216.741 106.762 218.166C107.874 219.591 109.396 220.638 111.121 221.166C112.846 221.693 114.692 221.674 116.406 221.113C118.121 220.551 119.622 219.474 120.704 218.027C121.787 216.58 122.4 214.834 122.459 213.025C122.518 211.217 122.021 209.434 121.035 207.919L128.296 161.993Z" fill="#FFB6B6"/>
<path d="M233.255 242.919C233.255 242.919 232.017 265.259 231.448 278H188.82C187.942 266.405 187.647 257.886 187.647 257.886L185.314 278H142.225L139.554 240.749L152.463 208.649C152.463 208.649 222.422 203.781 228.912 209.956C235.397 216.126 233.255 242.919 233.255 242.919Z" fill="#2F2E41"/>
<path d="M195.559 54.9921C208.419 54.9921 218.844 44.5343 218.844 31.6338C218.844 18.7333 208.419 8.27542 195.559 8.27542C182.699 8.27542 172.274 18.7333 172.274 31.6338C172.274 44.5343 182.699 54.9921 195.559 54.9921Z" fill="#FFB6B6"/>
<path d="M222.7 24.0438C220.309 25.1378 218.759 33.061 216.879 31.219C214.999 29.377 215.125 26.98 212.59 26.3002C210.544 25.7489 208.341 26.3789 206.474 27.3727C206.141 27.548 205.818 27.7386 205.503 27.9283C205.295 27.7889 205.088 27.6578 204.866 27.5368C203.196 26.6404 201.247 26.4205 199.42 26.9224C200.864 27.4073 202.119 28.3352 203.008 29.5748C202.383 29.9948 201.75 30.4159 201.103 30.789C195.695 33.9197 187.999 27.1122 182.307 24.5548C185.873 31.2668 184.117 34.0466 181.021 40.9883L180.914 41.3836C181.09 39.6438 175.723 38.3472 176.034 40.7963C176.255 42.5352 177.755 46.4002 178.596 47.9355C172.611 40.9935 168.521 32.4984 169.384 23.735C169.572 21.8941 169.515 19.9517 170.462 18.3539C171.409 16.7643 173.385 15.6489 175.132 16.255C174.984 13.4603 175.594 10.6775 176.896 8.20257C178.199 5.72763 180.146 3.65303 182.53 2.19932C184.914 0.745616 187.646 -0.032858 190.436 -0.0533418C193.226 -0.0738255 195.969 0.664452 198.374 2.083C200.609 3.39842 202.474 5.25884 204.522 6.8636C206.571 8.46836 208.932 9.86716 211.529 9.99965C213.177 10.0794 214.97 9.67585 216.385 10.5319C218.025 11.5252 218.306 13.6048 218.552 15.606C217.089 15.7506 215.703 16.3294 214.57 17.2683C216.083 17.1134 217.606 17.4412 218.923 18.205C218.948 18.2163 218.972 18.2299 218.994 18.2456C219.861 21.5528 219.773 22.286 222.7 24.0438Z" fill="#2F2E41"/>
<path d="M142.328 219.949C162.158 196.666 155.46 167.051 147.59 137.157L149.087 92.9933C149.161 90.827 149.753 88.7101 150.813 86.8216C151.874 84.9331 153.372 83.3283 155.181 82.1427L175.424 68.8764L183.303 57.4488L205.021 59.6275L217.065 72.4041L230.396 82.6133C233.743 85.1766 236.29 88.6466 237.736 92.614C239.183 96.5815 239.468 100.881 238.559 105.006L225.801 162.88C225.801 162.88 231.137 192.883 227.881 196.196C224.626 199.51 216.237 196.198 222.889 199.918C230.873 204.381 238.132 203.558 234.092 207.611C230.052 211.663 235.165 217.298 235.165 217.298L142.328 219.949Z" fill="#264653"/>
<path d="M150.806 253.788L154.112 230.162L140.921 226.385L138.312 251.488C137.221 252.493 136.43 253.782 136.029 255.212C135.628 256.643 135.632 258.157 136.042 259.584C136.452 261.012 137.251 262.297 138.348 263.294C139.446 264.292 140.799 264.962 142.256 265.23C143.713 265.498 145.215 265.354 146.594 264.812C147.974 264.271 149.175 263.354 150.063 262.165C150.952 260.976 151.492 259.563 151.623 258.083C151.754 256.603 151.471 255.116 150.806 253.788Z" fill="#FFB6B6"/>
<path d="M175.919 73.1353C175.919 73.1353 138.373 85.3937 137.478 94.3631C136.582 103.332 136.879 108.823 132.916 144.715L133.125 241.397C133.125 241.397 158.298 246.803 155.716 241.023C153.135 235.242 154.035 232.523 154.035 232.523C154.035 232.523 159.432 230.386 158.081 223.599C156.73 216.812 163.505 183.177 163.505 183.177L167.781 122.854L175.919 73.1353Z" fill="#264653"/>
<path d="M222.214 252.537L220.455 228.745L233.863 225.841L234.831 251.061C235.855 252.135 236.56 253.474 236.867 254.927C237.174 256.381 237.071 257.891 236.569 259.289C236.067 260.687 235.186 261.916 234.026 262.84C232.866 263.763 231.471 264.343 230 264.515C228.529 264.687 227.04 264.444 225.699 263.814C224.358 263.183 223.219 262.189 222.41 260.945C221.601 259.7 221.154 258.254 221.119 256.769C221.085 255.284 221.464 253.818 222.214 252.537H222.214Z" fill="#FFB6B6"/>
<path d="M208.926 70.6237C208.926 70.6237 245.593 85.3179 245.902 94.3268C246.211 103.336 245.557 108.795 247.173 144.87L240.665 241.331C240.665 241.331 215.194 245.076 218.147 239.477C221.099 233.878 220.378 231.105 220.378 231.105C220.378 231.105 215.131 228.619 216.922 221.935C218.712 215.251 214.143 181.244 214.143 181.244L213.807 120.77L208.926 70.6237Z" fill="#264653"/>
</g>
<defs>
<clipPath id="clip0_246_157">
<rect width="364" height="278" fill="white"/>
</clipPath>
</defs>
</svg>
