<svg width="114" height="30" viewBox="0 0 114 30" fill="none" xmlns="http://www.w3.org/2000/svg">
<path d="M23.38 17.98C23.38 20.3133 23 22.34 22.24 24.06C21.48 25.7667 20.2467 27.0867 18.54 28.02C16.8467 28.94 14.6 29.4 11.8 29.4C8.98667 29.4 6.73333 28.9333 5.04 28C3.34667 27.0533 2.12 25.7133 1.36 23.98C0.613333 22.2467 0.24 20.18 0.24 17.78V0.079998H6.18V18.22C6.18 20.38 6.7 21.96 7.74 22.96C8.78 23.9467 10.1333 24.44 11.8 24.44C12.9067 24.44 13.8867 24.2267 14.74 23.8C15.5933 23.36 16.26 22.6867 16.74 21.78C17.2333 20.86 17.48 19.6733 17.48 18.22V0.079998H23.38V17.98ZM53.5453 29H47.1853L39.5253 15.54L35.2453 20.7V29H29.1853V0.079998H35.2453V13.32L45.7853 0.079998H52.4853L43.7053 11.28L53.5453 29ZM57.8572 29V0.079998H77.7172L77.6972 5H63.7172V12.02H75.8572V16.84H63.6772V24.02L77.9172 24.04V29H57.8572ZM83.4822 29V0.079998H91.9622L98.5822 20.7L105.262 0.079998H113.722V29H107.822V6.88L100.862 29H96.2822L89.3622 6.98V29H83.4822Z" fill="black"/>
</svg>
