<svg width="279" height="82" viewBox="0 0 279 82" fill="none" xmlns="http://www.w3.org/2000/svg">
<path opacity="0.8" d="M0.664 78L4.848 66.432H6.52L10.704 78H9.192L8.056 74.832H3.328L2.168 78H0.664ZM3.704 73.472H7.664L5.696 67.896L3.704 73.472ZM12.4931 80.64C12.0078 80.64 11.6745 80.6053 11.4931 80.536C11.3118 80.4667 11.2211 80.432 11.2211 80.432V79.472L12.0611 79.488C12.3705 79.4987 12.6265 79.4773 12.8291 79.424C13.0318 79.3707 13.1945 79.2987 13.3171 79.208C13.4398 79.1173 13.5331 79.016 13.5971 78.904C13.6665 78.792 13.7225 78.6853 13.7651 78.584L14.0531 77.8L10.8211 69.728H12.3171L14.7571 76.112L17.1811 69.728H18.6291L15.1411 78.624C14.9278 79.1467 14.6878 79.5547 14.4211 79.848C14.1598 80.1413 13.8665 80.3467 13.5411 80.464C13.2211 80.5813 12.8718 80.64 12.4931 80.64ZM23.1995 78.16C22.4368 78.16 21.7702 77.9973 21.1995 77.672C20.6288 77.3413 20.1862 76.8587 19.8715 76.224C19.5568 75.5893 19.3995 74.8133 19.3995 73.896C19.3995 73.032 19.5462 72.2747 19.8395 71.624C20.1328 70.9733 20.5622 70.4693 21.1275 70.112C21.6982 69.7493 22.3888 69.568 23.1995 69.568C23.9622 69.568 24.6235 69.736 25.1835 70.072C25.7488 70.4027 26.1862 70.8907 26.4955 71.536C26.8048 72.1813 26.9595 72.968 26.9595 73.896C26.9595 74.7387 26.8155 75.48 26.5275 76.12C26.2448 76.76 25.8235 77.2613 25.2635 77.624C24.7088 77.9813 24.0208 78.16 23.1995 78.16ZM23.1995 76.992C23.6955 76.992 24.1142 76.8667 24.4555 76.616C24.7968 76.3653 25.0555 76.0053 25.2315 75.536C25.4075 75.0667 25.4955 74.5093 25.4955 73.864C25.4955 73.272 25.4182 72.7413 25.2635 72.272C25.1088 71.7973 24.8608 71.4213 24.5195 71.144C24.1835 70.8667 23.7435 70.728 23.1995 70.728C22.6982 70.728 22.2742 70.8533 21.9275 71.104C21.5808 71.3493 21.3168 71.7067 21.1355 72.176C20.9595 72.6453 20.8715 73.208 20.8715 73.864C20.8715 74.4453 20.9515 74.9733 21.1115 75.448C21.2715 75.9227 21.5222 76.2987 21.8635 76.576C22.2048 76.8533 22.6502 76.992 23.1995 76.992ZM34.5776 78.104C34.1296 78.104 33.767 78.0427 33.4896 77.92C33.2176 77.7973 33.007 77.632 32.8576 77.424C32.7136 77.216 32.615 76.9787 32.5616 76.712C32.5136 76.44 32.4896 76.16 32.4896 75.872V66.112H33.9456V75.728C33.9456 76.144 34.0256 76.456 34.1856 76.664C34.351 76.872 34.5803 76.9867 34.8736 77.008L35.3216 77.016V77.976C35.199 78.0133 35.071 78.0427 34.9376 78.064C34.8043 78.0907 34.6843 78.104 34.5776 78.104ZM38.824 69.728V78H37.392V69.728H38.824ZM38.856 66.44V67.976H37.344V66.44H38.856ZM41.5209 78V66.112H42.9609V70.944C43.0995 70.7147 43.2862 70.5013 43.5209 70.304C43.7555 70.1013 44.0409 69.9387 44.3769 69.816C44.7129 69.688 45.1022 69.624 45.5449 69.624C46.0835 69.624 46.5715 69.7253 47.0089 69.928C47.4462 70.1253 47.7929 70.408 48.0489 70.776C48.3049 71.144 48.4329 71.5813 48.4329 72.088V78H46.9529V72.384C46.9529 71.888 46.7822 71.5067 46.4409 71.24C46.1049 70.968 45.6649 70.832 45.1209 70.832C44.7529 70.832 44.4062 70.8933 44.0809 71.016C43.7555 71.1333 43.4915 71.3147 43.2889 71.56C43.0915 71.8 42.9929 72.1067 42.9929 72.48V78H41.5209ZM52.9964 78.16C52.463 78.16 51.991 78.0667 51.5804 77.88C51.1697 77.688 50.847 77.4133 50.6124 77.056C50.383 76.6987 50.2684 76.2667 50.2684 75.76C50.2684 74.8427 50.5884 74.16 51.2284 73.712C51.8684 73.264 52.895 73.024 54.3084 72.992L55.7884 72.952V72.304C55.7884 71.7973 55.6364 71.3973 55.3324 71.104C55.0284 70.8053 54.5564 70.656 53.9164 70.656C53.4417 70.6613 53.023 70.7733 52.6604 70.992C52.303 71.2107 52.071 71.568 51.9644 72.064H50.6604C50.6924 71.5253 50.8444 71.072 51.1164 70.704C51.3884 70.3307 51.767 70.048 52.2524 69.856C52.743 69.664 53.3217 69.568 53.9884 69.568C54.7084 69.568 55.3057 69.6693 55.7804 69.872C56.2604 70.0747 56.6177 70.3733 56.8524 70.768C57.0924 71.1627 57.2124 71.648 57.2124 72.224V78H55.9484L55.8444 76.448C55.5244 77.0933 55.1164 77.5413 54.6204 77.792C54.1297 78.0373 53.5884 78.16 52.9964 78.16ZM53.4444 77.096C53.7217 77.096 53.9964 77.0453 54.2684 76.944C54.5457 76.8427 54.799 76.7067 55.0284 76.536C55.2577 76.36 55.439 76.1653 55.5724 75.952C55.711 75.7333 55.783 75.5093 55.7884 75.28V73.864L54.5564 73.888C53.927 73.8987 53.399 73.9627 52.9724 74.08C52.551 74.1973 52.2337 74.3813 52.0204 74.632C51.8124 74.8827 51.7084 75.2107 51.7084 75.616C51.7084 76.08 51.8684 76.4427 52.1884 76.704C52.5137 76.9653 52.9324 77.096 53.4444 77.096ZM63.5516 70.808H61.6876V75.952C61.6876 76.2453 61.717 76.4613 61.7756 76.6C61.8396 76.7333 61.9436 76.8187 62.0876 76.856C62.237 76.8933 62.4396 76.912 62.6956 76.912H63.5996V77.904C63.4983 77.9413 63.3436 77.9733 63.1356 78C62.933 78.0267 62.6796 78.04 62.3756 78.04C61.805 78.04 61.3623 77.9627 61.0476 77.808C60.733 77.6533 60.5116 77.424 60.3836 77.12C60.261 76.816 60.1996 76.4427 60.1996 76V70.808H58.8556V69.728H60.2396L60.5996 67.32H61.6876V69.72H63.5516V70.808ZM72.1455 78.16C71.0735 78.16 70.2228 77.792 69.5935 77.056C68.9642 76.32 68.6495 75.2453 68.6495 73.832C68.6495 72.9733 68.7748 72.224 69.0255 71.584C69.2815 70.944 69.6602 70.448 70.1615 70.096C70.6628 69.744 71.2868 69.568 72.0335 69.568C72.4282 69.568 72.7775 69.6187 73.0815 69.72C73.3908 69.8213 73.6575 69.9493 73.8815 70.104C74.1055 70.2587 74.2868 70.4187 74.4255 70.584C74.5695 70.7493 74.6762 70.9013 74.7455 71.04V66.112H76.2335V78H75.1055L74.9455 76.304C74.8922 76.464 74.8068 76.6507 74.6895 76.864C74.5722 77.072 74.4068 77.2773 74.1935 77.48C73.9802 77.6773 73.7055 77.84 73.3695 77.968C73.0388 78.096 72.6308 78.16 72.1455 78.16ZM72.4095 77.024C73.2468 77.024 73.8442 76.7707 74.2015 76.264C74.5642 75.752 74.7455 74.9173 74.7455 73.76C74.7402 73.1147 74.6575 72.5653 74.4975 72.112C74.3428 71.6587 74.0975 71.3147 73.7615 71.08C73.4308 70.84 72.9908 70.72 72.4415 70.72C71.7588 70.72 71.2042 70.9627 70.7775 71.448C70.3508 71.9333 70.1375 72.704 70.1375 73.76C70.1375 74.7947 70.3295 75.5973 70.7135 76.168C71.1028 76.7387 71.6682 77.024 72.4095 77.024ZM80.9651 78.16C80.4318 78.16 79.9598 78.0667 79.5491 77.88C79.1385 77.688 78.8158 77.4133 78.5811 77.056C78.3518 76.6987 78.2371 76.2667 78.2371 75.76C78.2371 74.8427 78.5571 74.16 79.1971 73.712C79.8371 73.264 80.8638 73.024 82.2771 72.992L83.7571 72.952V72.304C83.7571 71.7973 83.6051 71.3973 83.3011 71.104C82.9971 70.8053 82.5251 70.656 81.8851 70.656C81.4105 70.6613 80.9918 70.7733 80.6291 70.992C80.2718 71.2107 80.0398 71.568 79.9331 72.064H78.6291C78.6611 71.5253 78.8131 71.072 79.0851 70.704C79.3571 70.3307 79.7358 70.048 80.2211 69.856C80.7118 69.664 81.2905 69.568 81.9571 69.568C82.6771 69.568 83.2745 69.6693 83.7491 69.872C84.2291 70.0747 84.5865 70.3733 84.8211 70.768C85.0611 71.1627 85.1811 71.648 85.1811 72.224V78H83.9171L83.8131 76.448C83.4931 77.0933 83.0851 77.5413 82.5891 77.792C82.0985 78.0373 81.5571 78.16 80.9651 78.16ZM81.4131 77.096C81.6905 77.096 81.9651 77.0453 82.2371 76.944C82.5145 76.8427 82.7678 76.7067 82.9971 76.536C83.2265 76.36 83.4078 76.1653 83.5411 75.952C83.6798 75.7333 83.7518 75.5093 83.7571 75.28V73.864L82.5251 73.888C81.8958 73.8987 81.3678 73.9627 80.9411 74.08C80.5198 74.1973 80.2025 74.3813 79.9891 74.632C79.7811 74.8827 79.6771 75.2107 79.6771 75.616C79.6771 76.08 79.8371 76.4427 80.1571 76.704C80.4825 76.9653 80.9011 77.096 81.4131 77.096ZM87.7084 78V69.728H89.1404V70.928C89.2737 70.6987 89.4577 70.4827 89.6924 70.28C89.9324 70.0773 90.2204 69.9147 90.5564 69.792C90.8977 69.6693 91.2897 69.608 91.7324 69.608C92.255 69.608 92.735 69.712 93.1724 69.92C93.615 70.128 93.967 70.4533 94.2284 70.896C94.495 71.3333 94.6284 71.8987 94.6284 72.592V78H93.1484V72.736C93.1484 72.0907 92.9777 71.6133 92.6364 71.304C92.3004 70.9893 91.863 70.832 91.3244 70.832C90.951 70.832 90.6017 70.8933 90.2764 71.016C89.951 71.1333 89.687 71.3147 89.4844 71.56C89.2817 71.8 89.1804 72.104 89.1804 72.472V78H87.7084ZM104.849 70.808H102.985V75.952C102.985 76.2453 103.014 76.4613 103.073 76.6C103.137 76.7333 103.241 76.8187 103.385 76.856C103.534 76.8933 103.737 76.912 103.993 76.912H104.897V77.904C104.795 77.9413 104.641 77.9733 104.433 78C104.23 78.0267 103.977 78.04 103.673 78.04C103.102 78.04 102.659 77.9627 102.345 77.808C102.03 77.6533 101.809 77.424 101.681 77.12C101.558 76.816 101.497 76.4427 101.497 76V70.808H100.153V69.728H101.537L101.897 67.32H102.985V69.72H104.849V70.808ZM107.811 74.208C107.811 74.7307 107.897 75.2053 108.067 75.632C108.243 76.0533 108.507 76.3893 108.859 76.64C109.217 76.8907 109.662 77.016 110.195 77.016C110.723 77.016 111.177 76.8933 111.555 76.648C111.939 76.4027 112.185 76.048 112.291 75.584H113.691C113.59 76.144 113.366 76.616 113.019 77C112.673 77.384 112.254 77.6747 111.763 77.872C111.273 78.064 110.761 78.16 110.227 78.16C109.454 78.16 108.774 77.992 108.187 77.656C107.601 77.32 107.142 76.8373 106.811 76.208C106.481 75.5787 106.315 74.824 106.315 73.944C106.315 73.0747 106.465 72.312 106.763 71.656C107.062 71 107.494 70.488 108.059 70.12C108.63 69.752 109.315 69.568 110.115 69.568C110.894 69.568 111.553 69.736 112.091 70.072C112.63 70.408 113.038 70.8827 113.315 71.496C113.598 72.104 113.739 72.8267 113.739 73.664V74.208H107.811ZM107.819 73.208H112.315C112.315 72.7333 112.235 72.3067 112.075 71.928C111.915 71.544 111.67 71.2427 111.339 71.024C111.014 70.8 110.603 70.688 110.107 70.688C109.59 70.688 109.161 70.8133 108.819 71.064C108.483 71.3093 108.23 71.6267 108.059 72.016C107.894 72.4 107.814 72.7973 107.819 73.208ZM115.771 78V69.728H117.195V70.928C117.424 70.5653 117.739 70.248 118.139 69.976C118.539 69.704 119.059 69.568 119.699 69.568C119.998 69.568 120.302 69.6187 120.611 69.72C120.926 69.8213 121.214 69.9733 121.475 70.176C121.736 70.3787 121.939 70.6267 122.083 70.92C122.339 70.5147 122.686 70.1893 123.123 69.944C123.56 69.6933 124.054 69.568 124.603 69.568C124.891 69.568 125.192 69.6133 125.507 69.704C125.822 69.7893 126.112 69.944 126.379 70.168C126.651 70.3867 126.872 70.6933 127.043 71.088C127.214 71.4773 127.299 71.9787 127.299 72.592V78H125.811V72.736C125.811 72.2347 125.731 71.848 125.571 71.576C125.411 71.2987 125.2 71.104 124.939 70.992C124.683 70.88 124.408 70.824 124.115 70.824C123.859 70.824 123.587 70.8747 123.299 70.976C123.011 71.0773 122.766 71.248 122.563 71.488C122.36 71.728 122.259 72.056 122.259 72.472V78H120.787V72.304C120.787 71.9787 120.699 71.7067 120.523 71.488C120.352 71.2693 120.136 71.104 119.875 70.992C119.619 70.88 119.363 70.824 119.107 70.824C118.824 70.824 118.539 70.88 118.251 70.992C117.968 71.104 117.728 71.2827 117.531 71.528C117.339 71.768 117.243 72.0827 117.243 72.472V78H115.771ZM132.53 78.16C132.098 78.1547 131.69 78.0933 131.306 77.976C130.927 77.8533 130.591 77.6747 130.298 77.44C130.004 77.2053 129.772 76.9147 129.602 76.568C129.436 76.216 129.354 75.808 129.354 75.344V69.728H130.834V75.192C130.834 75.7307 130.999 76.168 131.33 76.504C131.666 76.84 132.17 77.008 132.842 77.008C133.45 77.008 133.938 76.8507 134.306 76.536C134.679 76.216 134.866 75.7413 134.866 75.112V69.728H136.338V78H135.162L135.01 76.416C134.908 76.832 134.735 77.168 134.49 77.424C134.25 77.68 133.959 77.8693 133.618 77.992C133.282 78.1093 132.919 78.1653 132.53 78.16ZM146.004 78H144.436L141.844 73.848L140.212 75.536V78H138.74V66.112H140.212V73.864L144.1 69.728H145.796L142.812 72.88L146.004 78ZM149.84 78.16C149.307 78.16 148.835 78.0667 148.424 77.88C148.013 77.688 147.691 77.4133 147.456 77.056C147.227 76.6987 147.112 76.2667 147.112 75.76C147.112 74.8427 147.432 74.16 148.072 73.712C148.712 73.264 149.739 73.024 151.152 72.992L152.632 72.952V72.304C152.632 71.7973 152.48 71.3973 152.176 71.104C151.872 70.8053 151.4 70.656 150.76 70.656C150.285 70.6613 149.867 70.7733 149.504 70.992C149.147 71.2107 148.915 71.568 148.808 72.064H147.504C147.536 71.5253 147.688 71.072 147.96 70.704C148.232 70.3307 148.611 70.048 149.096 69.856C149.587 69.664 150.165 69.568 150.832 69.568C151.552 69.568 152.149 69.6693 152.624 69.872C153.104 70.0747 153.461 70.3733 153.696 70.768C153.936 71.1627 154.056 71.648 154.056 72.224V78H152.792L152.688 76.448C152.368 77.0933 151.96 77.5413 151.464 77.792C150.973 78.0373 150.432 78.16 149.84 78.16ZM150.288 77.096C150.565 77.096 150.84 77.0453 151.112 76.944C151.389 76.8427 151.643 76.7067 151.872 76.536C152.101 76.36 152.283 76.1653 152.416 75.952C152.555 75.7333 152.627 75.5093 152.632 75.28V73.864L151.4 73.888C150.771 73.8987 150.243 73.9627 149.816 74.08C149.395 74.1973 149.077 74.3813 148.864 74.632C148.656 74.8827 148.552 75.2107 148.552 75.616C148.552 76.08 148.712 76.4427 149.032 76.704C149.357 76.9653 149.776 77.096 150.288 77.096ZM156.583 78V69.728H158.015V70.928C158.149 70.6987 158.333 70.4827 158.567 70.28C158.807 70.0773 159.095 69.9147 159.431 69.792C159.773 69.6693 160.165 69.608 160.607 69.608C161.13 69.608 161.61 69.712 162.047 69.92C162.49 70.128 162.842 70.4533 163.103 70.896C163.37 71.3333 163.503 71.8987 163.503 72.592V78H162.023V72.736C162.023 72.0907 161.853 71.6133 161.511 71.304C161.175 70.9893 160.738 70.832 160.199 70.832C159.826 70.832 159.477 70.8933 159.151 71.016C158.826 71.1333 158.562 71.3147 158.359 71.56C158.157 71.8 158.055 72.104 158.055 72.472V78H156.583ZM172.441 78.16C171.865 78.16 171.329 78.072 170.833 77.896C170.343 77.7147 169.935 77.4347 169.609 77.056C169.284 76.672 169.079 76.184 168.993 75.592H170.337C170.412 75.9173 170.545 76.1893 170.737 76.408C170.935 76.6213 171.18 76.784 171.473 76.896C171.767 77.0027 172.087 77.056 172.433 77.056C172.988 77.056 173.436 76.952 173.777 76.744C174.119 76.536 174.289 76.216 174.289 75.784C174.289 75.48 174.199 75.2373 174.017 75.056C173.841 74.8693 173.567 74.7333 173.193 74.648L171.481 74.224C170.815 74.064 170.281 73.8133 169.881 73.472C169.481 73.1307 169.281 72.6533 169.281 72.04C169.276 71.5547 169.391 71.128 169.625 70.76C169.86 70.392 170.212 70.1013 170.681 69.888C171.151 69.6747 171.735 69.568 172.433 69.568C173.329 69.568 174.052 69.7707 174.601 70.176C175.156 70.576 175.444 71.1653 175.465 71.944H174.161C174.108 71.5493 173.929 71.2373 173.625 71.008C173.327 70.7733 172.924 70.656 172.417 70.656C171.889 70.656 171.46 70.7627 171.129 70.976C170.799 71.184 170.633 71.5093 170.633 71.952C170.633 72.2453 170.751 72.4773 170.985 72.648C171.22 72.8133 171.567 72.952 172.025 73.064L173.681 73.48C174.065 73.5813 174.38 73.7147 174.625 73.88C174.876 74.0453 175.073 74.2293 175.217 74.432C175.367 74.6347 175.471 74.848 175.529 75.072C175.593 75.2907 175.625 75.5013 175.625 75.704C175.625 76.2107 175.497 76.648 175.241 77.016C174.991 77.3787 174.628 77.6613 174.153 77.864C173.684 78.0613 173.113 78.16 172.441 78.16ZM178.749 74.208C178.749 74.7307 178.834 75.2053 179.005 75.632C179.181 76.0533 179.445 76.3893 179.797 76.64C180.154 76.8907 180.599 77.016 181.133 77.016C181.661 77.016 182.114 76.8933 182.493 76.648C182.877 76.4027 183.122 76.048 183.229 75.584H184.629C184.527 76.144 184.303 76.616 183.957 77C183.61 77.384 183.191 77.6747 182.701 77.872C182.21 78.064 181.698 78.16 181.165 78.16C180.391 78.16 179.711 77.992 179.125 77.656C178.538 77.32 178.079 76.8373 177.749 76.208C177.418 75.5787 177.253 74.824 177.253 73.944C177.253 73.0747 177.402 72.312 177.701 71.656C177.999 71 178.431 70.488 178.997 70.12C179.567 69.752 180.253 69.568 181.053 69.568C181.831 69.568 182.49 69.736 183.029 70.072C183.567 70.408 183.975 70.8827 184.253 71.496C184.535 72.104 184.677 72.8267 184.677 73.664V74.208H178.749ZM178.757 73.208H183.253C183.253 72.7333 183.173 72.3067 183.013 71.928C182.853 71.544 182.607 71.2427 182.277 71.024C181.951 70.8 181.541 70.688 181.045 70.688C180.527 70.688 180.098 70.8133 179.757 71.064C179.421 71.3093 179.167 71.6267 178.997 72.016C178.831 72.4 178.751 72.7973 178.757 73.208ZM191.052 69.728V70.808H189.044V78H187.556V70.808H185.812V69.728H187.556V68.448C187.556 67.792 187.724 67.2933 188.06 66.952C188.396 66.6053 188.898 66.432 189.564 66.432H191.124L191.132 67.48H189.892C189.556 67.48 189.327 67.5707 189.204 67.752C189.082 67.9333 189.02 68.208 189.02 68.576V69.728H191.052ZM192.88 78V69.728H194.288V71.32C194.427 70.9253 194.622 70.6 194.872 70.344C195.123 70.0827 195.408 69.888 195.728 69.76C196.054 69.632 196.39 69.568 196.736 69.568C196.859 69.568 196.979 69.576 197.096 69.592C197.214 69.608 197.304 69.6347 197.368 69.672V71.104C197.288 71.0667 197.184 71.0427 197.056 71.032C196.934 71.016 196.83 71.008 196.744 71.008C196.414 70.9867 196.104 71.008 195.816 71.072C195.528 71.1307 195.275 71.2347 195.056 71.384C194.838 71.5333 194.664 71.7307 194.536 71.976C194.414 72.216 194.352 72.5093 194.352 72.856V78H192.88ZM199.968 74.208C199.968 74.7307 200.053 75.2053 200.224 75.632C200.4 76.0533 200.664 76.3893 201.016 76.64C201.373 76.8907 201.818 77.016 202.352 77.016C202.88 77.016 203.333 76.8933 203.712 76.648C204.096 76.4027 204.341 76.048 204.448 75.584H205.848C205.746 76.144 205.522 76.616 205.176 77C204.829 77.384 204.41 77.6747 203.92 77.872C203.429 78.064 202.917 78.16 202.384 78.16C201.61 78.16 200.93 77.992 200.344 77.656C199.757 77.32 199.298 76.8373 198.968 76.208C198.637 75.5787 198.472 74.824 198.472 73.944C198.472 73.0747 198.621 72.312 198.92 71.656C199.218 71 199.65 70.488 200.216 70.12C200.786 69.752 201.472 69.568 202.272 69.568C203.05 69.568 203.709 69.736 204.248 70.072C204.786 70.408 205.194 70.8827 205.472 71.496C205.754 72.104 205.896 72.8267 205.896 73.664V74.208H199.968ZM199.976 73.208H204.472C204.472 72.7333 204.392 72.3067 204.232 71.928C204.072 71.544 203.826 71.2427 203.496 71.024C203.17 70.8 202.76 70.688 202.264 70.688C201.746 70.688 201.317 70.8133 200.976 71.064C200.64 71.3093 200.386 71.6267 200.216 72.016C200.05 72.4 199.97 72.7973 199.976 73.208ZM215.191 78H213.623L211.031 73.848L209.399 75.536V78H207.927V66.112H209.399V73.864L213.287 69.728H214.983L211.999 72.88L215.191 78ZM219.827 78.16C219.395 78.1547 218.987 78.0933 218.603 77.976C218.224 77.8533 217.888 77.6747 217.595 77.44C217.301 77.2053 217.069 76.9147 216.899 76.568C216.733 76.216 216.651 75.808 216.651 75.344V69.728H218.131V75.192C218.131 75.7307 218.296 76.168 218.627 76.504C218.963 76.84 219.467 77.008 220.139 77.008C220.747 77.008 221.235 76.8507 221.603 76.536C221.976 76.216 222.163 75.7413 222.163 75.112V69.728H223.635V78H222.459L222.307 76.416C222.205 76.832 222.032 77.168 221.787 77.424C221.547 77.68 221.256 77.8693 220.915 77.992C220.579 78.1093 220.216 78.1653 219.827 78.16ZM226.999 74.208C226.999 74.7307 227.084 75.2053 227.255 75.632C227.431 76.0533 227.695 76.3893 228.047 76.64C228.404 76.8907 228.849 77.016 229.383 77.016C229.911 77.016 230.364 76.8933 230.743 76.648C231.127 76.4027 231.372 76.048 231.479 75.584H232.879C232.777 76.144 232.553 76.616 232.207 77C231.86 77.384 231.441 77.6747 230.951 77.872C230.46 78.064 229.948 78.16 229.415 78.16C228.641 78.16 227.961 77.992 227.375 77.656C226.788 77.32 226.329 76.8373 225.999 76.208C225.668 75.5787 225.503 74.824 225.503 73.944C225.503 73.0747 225.652 72.312 225.951 71.656C226.249 71 226.681 70.488 227.247 70.12C227.817 69.752 228.503 69.568 229.303 69.568C230.081 69.568 230.74 69.736 231.279 70.072C231.817 70.408 232.225 70.8827 232.503 71.496C232.785 72.104 232.927 72.8267 232.927 73.664V74.208H226.999ZM227.007 73.208H231.503C231.503 72.7333 231.423 72.3067 231.263 71.928C231.103 71.544 230.857 71.2427 230.527 71.024C230.201 70.8 229.791 70.688 229.295 70.688C228.777 70.688 228.348 70.8133 228.007 71.064C227.671 71.3093 227.417 71.6267 227.247 72.016C227.081 72.4 227.001 72.7973 227.007 73.208ZM234.958 78V69.728H236.39V70.928C236.524 70.6987 236.708 70.4827 236.942 70.28C237.182 70.0773 237.47 69.9147 237.806 69.792C238.148 69.6693 238.54 69.608 238.982 69.608C239.505 69.608 239.985 69.712 240.422 69.92C240.865 70.128 241.217 70.4533 241.478 70.896C241.745 71.3333 241.878 71.8987 241.878 72.592V78H240.398V72.736C240.398 72.0907 240.228 71.6133 239.886 71.304C239.55 70.9893 239.113 70.832 238.574 70.832C238.201 70.832 237.852 70.8933 237.526 71.016C237.201 71.1333 236.937 71.3147 236.734 71.56C236.532 71.8 236.43 72.104 236.43 72.472V78H234.958ZM247.004 78.16C246.428 78.16 245.892 78.072 245.396 77.896C244.905 77.7147 244.497 77.4347 244.172 77.056C243.846 76.672 243.641 76.184 243.556 75.592H244.9C244.974 75.9173 245.108 76.1893 245.3 76.408C245.497 76.6213 245.742 76.784 246.036 76.896C246.329 77.0027 246.649 77.056 246.996 77.056C247.55 77.056 247.998 76.952 248.34 76.744C248.681 76.536 248.852 76.216 248.852 75.784C248.852 75.48 248.761 75.2373 248.58 75.056C248.404 74.8693 248.129 74.7333 247.756 74.648L246.044 74.224C245.377 74.064 244.844 73.8133 244.444 73.472C244.044 73.1307 243.844 72.6533 243.844 72.04C243.838 71.5547 243.953 71.128 244.188 70.76C244.422 70.392 244.774 70.1013 245.244 69.888C245.713 69.6747 246.297 69.568 246.996 69.568C247.892 69.568 248.614 69.7707 249.164 70.176C249.718 70.576 250.006 71.1653 250.028 71.944H248.724C248.67 71.5493 248.492 71.2373 248.188 71.008C247.889 70.7733 247.486 70.656 246.98 70.656C246.452 70.656 246.022 70.7627 245.692 70.976C245.361 71.184 245.196 71.5093 245.196 71.952C245.196 72.2453 245.313 72.4773 245.548 72.648C245.782 72.8133 246.129 72.952 246.588 73.064L248.244 73.48C248.628 73.5813 248.942 73.7147 249.188 73.88C249.438 74.0453 249.636 74.2293 249.78 74.432C249.929 74.6347 250.033 74.848 250.092 75.072C250.156 75.2907 250.188 75.5013 250.188 75.704C250.188 76.2107 250.06 76.648 249.804 77.016C249.553 77.3787 249.19 77.6613 248.716 77.864C248.246 78.0613 247.676 78.16 247.004 78.16ZM253.855 69.728V78H252.423V69.728H253.855ZM253.887 66.44V67.976H252.375V66.44H253.887ZM256.552 78V69.728H257.976V70.928C258.205 70.5653 258.52 70.248 258.92 69.976C259.32 69.704 259.84 69.568 260.48 69.568C260.779 69.568 261.083 69.6187 261.392 69.72C261.707 69.8213 261.995 69.9733 262.256 70.176C262.517 70.3787 262.72 70.6267 262.864 70.92C263.12 70.5147 263.467 70.1893 263.904 69.944C264.341 69.6933 264.835 69.568 265.384 69.568C265.672 69.568 265.973 69.6133 266.288 69.704C266.603 69.7893 266.893 69.944 267.16 70.168C267.432 70.3867 267.653 70.6933 267.824 71.088C267.995 71.4773 268.08 71.9787 268.08 72.592V78H266.592V72.736C266.592 72.2347 266.512 71.848 266.352 71.576C266.192 71.2987 265.981 71.104 265.72 70.992C265.464 70.88 265.189 70.824 264.896 70.824C264.64 70.824 264.368 70.8747 264.08 70.976C263.792 71.0773 263.547 71.248 263.344 71.488C263.141 71.728 263.04 72.056 263.04 72.472V78H261.568V72.304C261.568 71.9787 261.48 71.7067 261.304 71.488C261.133 71.2693 260.917 71.104 260.656 70.992C260.4 70.88 260.144 70.824 259.888 70.824C259.605 70.824 259.32 70.88 259.032 70.992C258.749 71.104 258.509 71.2827 258.312 71.528C258.12 71.768 258.024 72.0827 258.024 72.472V78H256.552ZM273.311 78.16C272.879 78.1547 272.471 78.0933 272.087 77.976C271.708 77.8533 271.372 77.6747 271.079 77.44C270.786 77.2053 270.554 76.9147 270.383 76.568C270.218 76.216 270.135 75.808 270.135 75.344V69.728H271.615V75.192C271.615 75.7307 271.78 76.168 272.111 76.504C272.447 76.84 272.951 77.008 273.623 77.008C274.231 77.008 274.719 76.8507 275.087 76.536C275.46 76.216 275.647 75.7413 275.647 75.112V69.728H277.119V78H275.943L275.791 76.416C275.69 76.832 275.516 77.168 275.271 77.424C275.031 77.68 274.74 77.8693 274.399 77.992C274.063 78.1093 273.7 78.1653 273.311 78.16Z" fill="#264653"/>
<path d="M103.38 26.98C103.38 29.3133 103 31.34 102.24 33.06C101.48 34.7667 100.247 36.0867 98.54 37.02C96.8467 37.94 94.6 38.4 91.8 38.4C88.9867 38.4 86.7333 37.9333 85.04 37C83.3467 36.0533 82.12 34.7133 81.36 32.98C80.6133 31.2467 80.24 29.18 80.24 26.78V9.08H86.18V27.22C86.18 29.38 86.7 30.96 87.74 31.96C88.78 32.9467 90.1333 33.44 91.8 33.44C92.9067 33.44 93.8867 33.2267 94.74 32.8C95.5933 32.36 96.26 31.6867 96.74 30.78C97.2333 29.86 97.48 28.6733 97.48 27.22V9.08H103.38V26.98ZM133.545 38H127.185L119.525 24.54L115.245 29.7V38H109.185V9.08H115.245V22.32L125.785 9.08H132.485L123.705 20.28L133.545 38ZM137.857 38V9.08H157.717L157.697 14H143.717V21.02H155.857V25.84H143.677V33.02L157.917 33.04V38H137.857ZM163.482 38V9.08H171.962L178.582 29.7L185.262 9.08H193.722V38H187.822V15.88L180.862 38H176.282L169.362 15.98V38H163.482Z" fill="#264653"/>
</svg>
