<svg width="35" height="34" viewBox="0 0 35 34" fill="none" xmlns="http://www.w3.org/2000/svg">
<path d="M32.2085 16.7747L18.3687 3.53398C18.269 3.43839 18.1507 3.36255 18.0204 3.3108C17.8901 3.25906 17.7504 3.23242 17.6093 3.23242C17.4683 3.23242 17.3286 3.25906 17.1983 3.3108C17.068 3.36255 16.9496 3.43839 16.85 3.53398L3.01022 16.7747C2.60702 17.1607 2.37854 17.6851 2.37854 18.232C2.37854 19.3675 3.34285 20.2908 4.52893 20.2908H5.98716V29.7388C5.98716 30.3082 6.46764 30.7682 7.06235 30.7682H15.4589V23.5624H19.2221V30.7682H28.1563C28.751 30.7682 29.2315 30.3082 29.2315 29.7388V20.2908H30.6897C31.2609 20.2908 31.8086 20.0752 32.2118 19.686C33.0485 18.8818 33.0485 17.5789 32.2085 16.7747Z" fill="#5690A8"/>
</svg>
