<svg width="35" height="35" viewBox="0 0 35 35" fill="none" xmlns="http://www.w3.org/2000/svg">
<g clip-path="url(#clip0_287_30)">
<path d="M31.5125 6.92499C31.7942 6.92499 32.0645 7.03693 32.2638 7.23619C32.463 7.43544 32.575 7.7057 32.575 7.98749V27.1125C32.575 27.3943 32.463 27.6645 32.2638 27.8638C32.0645 28.063 31.7942 28.175 31.5125 28.175H3.88745C3.60566 28.175 3.33541 28.063 3.13615 27.8638C2.93689 27.6645 2.82495 27.3943 2.82495 27.1125V7.98749C2.82495 7.7057 2.93689 7.43544 3.13615 7.23619C3.33541 7.03693 3.60566 6.92499 3.88745 6.92499H31.5125ZM3.88745 4.79999C3.04207 4.79999 2.23132 5.13581 1.63355 5.73359C1.03578 6.33136 0.699951 7.14211 0.699951 7.98749L0.699951 27.1125C0.699951 27.9579 1.03578 28.7686 1.63355 29.3664C2.23132 29.9642 3.04207 30.3 3.88745 30.3H31.5125C32.3578 30.3 33.1686 29.9642 33.7664 29.3664C34.3641 28.7686 34.7 27.9579 34.7 27.1125V7.98749C34.7 7.14211 34.3641 6.33136 33.7664 5.73359C33.1686 5.13581 32.3578 4.79999 31.5125 4.79999H3.88745Z" fill="white"/>
<path d="M11.325 17.55C11.325 17.2682 11.4369 16.9979 11.6362 16.7987C11.8354 16.5994 12.1057 16.4875 12.3875 16.4875H27.2625C27.5442 16.4875 27.8145 16.5994 28.0138 16.7987C28.213 16.9979 28.325 17.2682 28.325 17.55C28.325 17.8318 28.213 18.102 28.0138 18.3013C27.8145 18.5005 27.5442 18.6125 27.2625 18.6125H12.3875C12.1057 18.6125 11.8354 18.5005 11.6362 18.3013C11.4369 18.102 11.325 17.8318 11.325 17.55ZM11.325 12.2375C11.325 11.9557 11.4369 11.6854 11.6362 11.4862C11.8354 11.2869 12.1057 11.175 12.3875 11.175H27.2625C27.5442 11.175 27.8145 11.2869 28.0138 11.4862C28.213 11.6854 28.325 11.9557 28.325 12.2375C28.325 12.5193 28.213 12.7895 28.0138 12.9888C27.8145 13.188 27.5442 13.3 27.2625 13.3H12.3875C12.1057 13.3 11.8354 13.188 11.6362 12.9888C11.4369 12.7895 11.325 12.5193 11.325 12.2375ZM11.325 22.8625C11.325 22.5807 11.4369 22.3104 11.6362 22.1112C11.8354 21.9119 12.1057 21.8 12.3875 21.8H27.2625C27.5442 21.8 27.8145 21.9119 28.0138 22.1112C28.213 22.3104 28.325 22.5807 28.325 22.8625C28.325 23.1443 28.213 23.4145 28.0138 23.6138C27.8145 23.813 27.5442 23.925 27.2625 23.925H12.3875C12.1057 23.925 11.8354 23.813 11.6362 23.6138C11.4369 23.4145 11.325 23.1443 11.325 22.8625ZM9.19995 12.2375C9.19995 12.5193 9.08801 12.7895 8.88875 12.9888C8.68949 13.188 8.41924 13.3 8.13745 13.3C7.85566 13.3 7.58541 13.188 7.38615 12.9888C7.18689 12.7895 7.07495 12.5193 7.07495 12.2375C7.07495 11.9557 7.18689 11.6854 7.38615 11.4862C7.58541 11.2869 7.85566 11.175 8.13745 11.175C8.41924 11.175 8.68949 11.2869 8.88875 11.4862C9.08801 11.6854 9.19995 11.9557 9.19995 12.2375V12.2375ZM9.19995 17.55C9.19995 17.8318 9.08801 18.102 8.88875 18.3013C8.68949 18.5005 8.41924 18.6125 8.13745 18.6125C7.85566 18.6125 7.58541 18.5005 7.38615 18.3013C7.18689 18.102 7.07495 17.8318 7.07495 17.55C7.07495 17.2682 7.18689 16.9979 7.38615 16.7987C7.58541 16.5994 7.85566 16.4875 8.13745 16.4875C8.41924 16.4875 8.68949 16.5994 8.88875 16.7987C9.08801 16.9979 9.19995 17.2682 9.19995 17.55V17.55ZM9.19995 22.8625C9.19995 23.1443 9.08801 23.4145 8.88875 23.6138C8.68949 23.813 8.41924 23.925 8.13745 23.925C7.85566 23.925 7.58541 23.813 7.38615 23.6138C7.18689 23.4145 7.07495 23.1443 7.07495 22.8625C7.07495 22.5807 7.18689 22.3104 7.38615 22.1112C7.58541 21.9119 7.85566 21.8 8.13745 21.8C8.41924 21.8 8.68949 21.9119 8.88875 22.1112C9.08801 22.3104 9.19995 22.5807 9.19995 22.8625V22.8625Z" fill="white"/>
</g>
<defs>
<clipPath id="clip0_287_30">
<rect width="34" height="34" fill="white" transform="translate(0.699951 0.549988)"/>
</clipPath>
</defs>
</svg>
