<svg width="35" height="36" viewBox="0 0 35 36" fill="none" xmlns="http://www.w3.org/2000/svg">
<g clip-path="url(#clip0_22_4)">
<path d="M20.2795 2.81402C19.389 -0.20473 15.111 -0.20473 14.2205 2.81402L14.0048 3.54714C13.8718 3.99908 13.6393 4.41551 13.3243 4.76588C13.0094 5.11626 12.62 5.3917 12.1847 5.572C11.7495 5.75231 11.2794 5.8329 10.8089 5.80788C10.3385 5.78286 9.87961 5.65285 9.46594 5.42739L8.7975 5.06083C6.03103 3.55577 3.00581 6.58099 4.51303 9.3453L4.87744 10.0159C5.83913 11.784 4.92703 13.9856 2.99719 14.5548L2.26406 14.7704C-0.754688 15.661 -0.754688 19.939 2.26406 20.8295L2.99719 21.0451C3.44913 21.1782 3.86555 21.4107 4.21593 21.7256C4.5663 22.0406 4.84174 22.43 5.02204 22.8652C5.20235 23.3005 5.28294 23.7706 5.25792 24.241C5.2329 24.7115 5.10289 25.1703 4.87744 25.584L4.51088 26.2525C3.00581 29.0189 6.03103 32.0441 8.79534 30.5369L9.46594 30.1725C9.87961 29.9471 10.3385 29.8171 10.8089 29.792C11.2794 29.767 11.7495 29.8476 12.1847 30.0279C12.62 30.2082 13.0094 30.4837 13.3243 30.834C13.6393 31.1844 13.8718 31.6008 14.0048 32.0528L14.2205 32.7859C15.111 35.8046 19.389 35.8046 20.2795 32.7859L20.4952 32.0528C20.6282 31.6008 20.8607 31.1844 21.1757 30.834C21.4906 30.4837 21.88 30.2082 22.3153 30.0279C22.7505 29.8476 23.2206 29.767 23.6911 29.792C24.1615 29.8171 24.6204 29.9471 25.0341 30.1725L25.7025 30.5391C28.469 32.0441 31.4942 29.0189 29.987 26.2546L29.6226 25.584C29.3971 25.1703 29.2671 24.7115 29.2421 24.241C29.2171 23.7706 29.2977 23.3005 29.478 22.8652C29.6583 22.43 29.9337 22.0406 30.2841 21.7256C30.6344 21.4107 31.0509 21.1782 31.5028 21.0451L32.2359 20.8295C35.2547 19.939 35.2547 15.661 32.2359 14.7704L31.5028 14.5548C31.0509 14.4217 30.6344 14.1892 30.2841 13.8743C29.9337 13.5593 29.6583 13.17 29.478 12.7347C29.2977 12.2994 29.2171 11.8294 29.2421 11.3589C29.2671 10.8885 29.3971 10.4296 29.6226 10.0159L29.9891 9.34746C31.4942 6.58099 28.469 3.55577 25.7047 5.06299L25.0341 5.42739C24.6204 5.65285 24.1615 5.78286 23.6911 5.80788C23.2206 5.8329 22.7505 5.75231 22.3153 5.572C21.88 5.3917 21.4906 5.11626 21.1757 4.76588C20.8607 4.41551 20.6282 3.99908 20.4952 3.54714L20.2795 2.81402ZM17.25 24.1178C15.5744 24.1178 13.9675 23.4521 12.7826 22.2673C11.5978 21.0825 10.9322 19.4755 10.9322 17.8C10.9322 16.1244 11.5978 14.5174 12.7826 13.3326C13.9675 12.1478 15.5744 11.4821 17.25 11.4821C18.925 11.4821 20.5314 12.1475 21.7158 13.332C22.9003 14.5164 23.5657 16.1228 23.5657 17.7978C23.5657 19.4728 22.9003 21.0792 21.7158 22.2636C20.5314 23.4481 18.925 24.1135 17.25 24.1135V24.1178Z" fill="#5690A8"/>
</g>
<defs>
<clipPath id="clip0_22_4">
<rect y="0.549957" width="34.5" height="34.5" rx="10" fill="white"/>
</clipPath>
</defs>
</svg>
