<svg width="29" height="28" viewBox="0 0 29 28" fill="none" xmlns="http://www.w3.org/2000/svg">
<path d="M11.8367 25.9C11.8367 25.9583 11.8429 26.1042 11.8552 26.3375C11.8676 26.5708 11.8706 26.7641 11.8645 26.9172C11.8583 27.0703 11.8398 27.2417 11.809 27.4312C11.7782 27.6208 11.7165 27.763 11.624 27.8578C11.5316 27.9526 11.4052 28 11.2449 28H5.32653C3.85927 28 2.6047 27.3839 1.56282 26.1516C0.52094 24.9193 0 23.4354 0 21.7V6.3C0 4.56458 0.52094 3.08073 1.56282 1.84844C2.6047 0.616146 3.85927 0 5.32653 0H11.2449C11.4052 0 11.5439 0.0692708 11.661 0.207812C11.7782 0.346354 11.8367 0.510417 11.8367 0.7C11.8367 0.758333 11.8429 0.904167 11.8552 1.1375C11.8676 1.37083 11.8706 1.56406 11.8645 1.71719C11.8583 1.87031 11.8398 2.04167 11.809 2.23125C11.7782 2.42083 11.7165 2.56302 11.624 2.65781C11.5316 2.7526 11.4052 2.8 11.2449 2.8H5.32653C4.51276 2.8 3.81611 3.14271 3.23661 3.82812C2.6571 4.51354 2.36735 5.3375 2.36735 6.3V21.7C2.36735 22.6625 2.6571 23.4865 3.23661 24.1719C3.81611 24.8573 4.51276 25.2 5.32653 25.2H11.0969L11.3096 25.2219L11.5223 25.2875L11.6703 25.4078L11.7997 25.6047L11.8367 25.9ZM29 14C29 14.3792 28.8829 14.7073 28.6486 14.9844L18.5874 26.8844C18.3531 27.1615 18.0757 27.3 17.7551 27.3C17.4345 27.3 17.1571 27.1615 16.9228 26.8844C16.6886 26.6073 16.5714 26.2792 16.5714 25.9V19.6H8.28571C7.96514 19.6 7.68771 19.4615 7.45344 19.1844C7.21918 18.9073 7.10204 18.5792 7.10204 18.2V9.8C7.10204 9.42083 7.21918 9.09271 7.45344 8.81562C7.68771 8.53854 7.96514 8.4 8.28571 8.4H16.5714V2.1C16.5714 1.72083 16.6886 1.39271 16.9228 1.11562C17.1571 0.838542 17.4345 0.7 17.7551 0.7C18.0757 0.7 18.3531 0.838542 18.5874 1.11562L28.6486 13.0156C28.8829 13.2927 29 13.6208 29 14Z" fill="black"/>
</svg>
