<svg width="29" height="27" viewBox="0 0 29 27" fill="none" xmlns="http://www.w3.org/2000/svg">
<path d="M21.75 9H24.1667C24.4871 9 24.7945 9.11853 25.0211 9.3295C25.2477 9.54048 25.375 9.82663 25.375 10.125V23.625C25.375 23.9234 25.2477 24.2095 25.0211 24.4205C24.7945 24.6315 24.4871 24.75 24.1667 24.75H4.83333C4.51286 24.75 4.20552 24.6315 3.97891 24.4205C3.75231 24.2095 3.625 23.9234 3.625 23.625V10.125C3.625 9.82663 3.75231 9.54048 3.97891 9.3295C4.20552 9.11853 4.51286 9 4.83333 9H7.25V7.875C7.25 6.08479 8.01384 4.3679 9.37348 3.10203C10.7331 1.83616 12.5772 1.125 14.5 1.125C16.4228 1.125 18.2669 1.83616 19.6265 3.10203C20.9862 4.3679 21.75 6.08479 21.75 7.875V9ZM19.3333 9V7.875C19.3333 6.68153 18.8241 5.53693 17.9177 4.69302C17.0113 3.84911 15.7819 3.375 14.5 3.375C13.2181 3.375 11.9887 3.84911 11.0823 4.69302C10.1759 5.53693 9.66667 6.68153 9.66667 7.875V9H19.3333ZM13.2917 15.75V18H15.7083V15.75H13.2917ZM8.45833 15.75V18H10.875V15.75H8.45833ZM18.125 15.75V18H20.5417V15.75H18.125Z" fill="black"/>
</svg>
