<svg width="29" height="28" viewBox="0 0 29 28" fill="none" xmlns="http://www.w3.org/2000/svg">
<g clip-path="url(#clip0_204_58)">
<path d="M10.15 14C13.3536 14 15.95 10.8664 15.95 7C15.95 3.13359 13.3536 0 10.15 0C6.94641 0 4.35 3.13359 4.35 7C4.35 10.8664 6.94641 14 10.15 14ZM14.21 15.75H13.4533C12.4473 16.3078 11.3281 16.625 10.15 16.625C8.97188 16.625 7.85719 16.3078 6.84672 15.75H6.09C2.72781 15.75 0 19.0422 0 23.1V25.375C0 26.8242 0.974219 28 2.175 28H14.6314C14.5227 27.6281 14.4773 27.2344 14.5136 26.8352L14.8217 23.5047L14.8761 22.8977L15.2341 22.4656L18.7367 18.2383C17.6266 16.7234 16.018 15.75 14.21 15.75ZM16.2627 23.6961L15.9545 27.032C15.9047 27.5898 16.2944 28.0602 16.752 27.9945L19.5116 27.6227L25.7602 20.0813L22.5112 16.1602L16.2627 23.6961ZM28.6828 14.7055L26.9655 12.6328C26.5441 12.1242 25.8553 12.1242 25.4339 12.6328L23.7211 14.7L23.5353 14.9242L26.7888 18.8453L28.6828 16.5594C29.1042 16.0453 29.1042 15.2195 28.6828 14.7055Z" fill="black"/>
</g>
<defs>
<clipPath id="clip0_204_58">
<rect width="29" height="28" fill="white"/>
</clipPath>
</defs>
</svg>
