<svg width="30" height="30" viewBox="0 0 30 30" fill="none" xmlns="http://www.w3.org/2000/svg">
<path d="M22.5 23.575H21.55C20.55 23.575 19.6 23.9625 18.9 24.6625L16.7625 26.775C15.7875 27.7375 14.2 27.7375 13.225 26.775L11.0875 24.6625C10.3875 23.9625 9.425 23.575 8.4375 23.575H7.5C5.425 23.575 3.75 21.9125 3.75 19.8625V6.22498C3.75 4.17498 5.425 2.51251 7.5 2.51251H22.5C24.575 2.51251 26.25 4.17498 26.25 6.22498V19.8625C26.25 21.9 24.575 23.575 22.5 23.575Z" stroke="black" stroke-width="1.5" stroke-miterlimit="10" stroke-linecap="round" stroke-linejoin="round"/>
<path d="M14.9999 12.5C16.6085 12.5 17.9124 11.196 17.9124 9.58748C17.9124 7.97895 16.6085 6.67503 14.9999 6.67503C13.3914 6.67503 12.0874 7.97895 12.0874 9.58748C12.0874 11.196 13.3914 12.5 14.9999 12.5Z" stroke="black" stroke-width="1.5" stroke-linecap="round" stroke-linejoin="round"/>
<path d="M20 19.575C20 17.325 17.7625 15.5 15 15.5C12.2375 15.5 10 17.325 10 19.575" stroke="black" stroke-width="1.5" stroke-linecap="round" stroke-linejoin="round"/>
</svg>
